REM DIRINDEX 1\2,1\3,1\4
REM DIRNAME folder01,folder02,folder03,folder04
TITLE ""
FILE "160 160_TOEFL_3900.mp3" MP3
  TRACK 01 AUDIO
    TITLE "2:cjc151_6969"
    INDEX 01 00:00:00
  TRACK 02 AUDIO
    TITLE "0:"
    INDEX 01 00:01:24
  TRACK 03 AUDIO
    TITLE "3:cjc151_6970"
    INDEX 01 00:03:04
  TRACK 04 AUDIO
    TITLE "0:"
    INDEX 01 00:06:57
  TRACK 05 AUDIO
    TITLE "2:cjc151_6971"
    INDEX 01 00:08:36
  TRACK 06 AUDIO
    TITLE "0:"
    INDEX 01 00:09:53
  TRACK 07 AUDIO
    TITLE "3:cjc151_6972"
    INDEX 01 00:11:25
  TRACK 08 AUDIO
    TITLE "0:"
    INDEX 01 00:15:01
  TRACK 09 AUDIO
    TITLE "2:cjc151_6973"
    INDEX 01 00:16:53
  TRACK 10 AUDIO
    TITLE "0:"
    INDEX 01 00:18:01
  TRACK 11 AUDIO
    TITLE "3:cjc151_6974"
    INDEX 01 00:19:56
  TRACK 12 AUDIO
    TITLE "0:"
    INDEX 01 00:22:58
  TRACK 13 AUDIO
    TITLE "2:cjc151_6975"
    INDEX 01 00:24:35
  TRACK 14 AUDIO
    TITLE "0:"
    INDEX 01 00:26:05
  TRACK 15 AUDIO
    TITLE "3:cjc151_6976"
    INDEX 01 00:27:59
  TRACK 16 AUDIO
    TITLE "0:"
    INDEX 01 00:31:57
  TRACK 17 AUDIO
    TITLE "2:cjc151_6977"
    INDEX 01 00:33:36
  TRACK 18 AUDIO
    TITLE "0:"
    INDEX 01 00:34:63
  TRACK 19 AUDIO
    TITLE "3:cjc151_6978"
    INDEX 01 00:36:40
  TRACK 20 AUDIO
    TITLE "0:"
    INDEX 01 00:40:32
  TRACK 21 AUDIO
    TITLE "2:cjc151_6979"
    INDEX 01 00:42:12
  TRACK 22 AUDIO
    TITLE "0:"
    INDEX 01 00:43:35
  TRACK 23 AUDIO
    TITLE "3:cjc151_6980"
    INDEX 01 00:45:14
  TRACK 24 AUDIO
    TITLE "0:"
    INDEX 01 00:49:37
  TRACK 25 AUDIO
    TITLE "2:cjc151_6981"
    INDEX 01 00:51:24
  TRACK 26 AUDIO
    TITLE "0:"
    INDEX 01 00:52:53
  TRACK 27 AUDIO
    TITLE "3:cjc151_6982"
    INDEX 01 00:54:32
  TRACK 28 AUDIO
    TITLE "0:"
    INDEX 01 00:58:73
  TRACK 29 AUDIO
    TITLE "2:cjc151_6983"
    INDEX 01 01:00:60
  TRACK 30 AUDIO
    TITLE "0:"
    INDEX 01 01:02:08
  TRACK 31 AUDIO
    TITLE "3:cjc151_6984"
    INDEX 01 01:03:59
  TRACK 32 AUDIO
    TITLE "0:"
    INDEX 01 01:08:21
  TRACK 33 AUDIO
    TITLE "2:cjc151_6985"
    INDEX 01 01:09:73
  TRACK 34 AUDIO
    TITLE "0:"
    INDEX 01 01:10:51
  TRACK 35 AUDIO
    TITLE "3:cjc151_6986"
    INDEX 01 01:12:44
  TRACK 36 AUDIO
    TITLE "0:"
    INDEX 01 01:17:08
  TRACK 37 AUDIO
    TITLE "2:cjc151_6987"
    INDEX 01 01:19:09
  TRACK 38 AUDIO
    TITLE "0:"
    INDEX 01 01:20:02
  TRACK 39 AUDIO
    TITLE "3:cjc151_6988"
    INDEX 01 01:21:53
  TRACK 40 AUDIO
    TITLE "0:"
    INDEX 01 01:25:58
  TRACK 41 AUDIO
    TITLE "2:cjc151_6989"
    INDEX 01 01:27:36
  TRACK 42 AUDIO
    TITLE "0:"
    INDEX 01 01:28:18
  TRACK 43 AUDIO
    TITLE "3:cjc151_6990"
    INDEX 01 01:29:64
  TRACK 44 AUDIO
    TITLE "0:"
    INDEX 01 01:34:08
  TRACK 45 AUDIO
    TITLE "2:cjc151_6991"
    INDEX 01 01:35:61
  TRACK 46 AUDIO
    TITLE "0:"
    INDEX 01 01:36:70
  TRACK 47 AUDIO
    TITLE "3:cjc151_6992"
    INDEX 01 01:38:49
  TRACK 48 AUDIO
    TITLE "0:"
    INDEX 01 01:42:14
  TRACK 49 AUDIO
    TITLE "2:cjc151_6993"
    INDEX 01 01:43:68
  TRACK 50 AUDIO
    TITLE "0:"
    INDEX 01 01:45:04
  TRACK 51 AUDIO
    TITLE "3:cjc151_6994"
    INDEX 01 01:46:59
  TRACK 52 AUDIO
    TITLE "0:"
    INDEX 01 01:51:13
  TRACK 53 AUDIO
    TITLE "2:cjc151_6995"
    INDEX 01 01:52:65
  TRACK 54 AUDIO
    TITLE "0:"
    INDEX 01 01:53:57
  TRACK 55 AUDIO
    TITLE "3:cjc151_6996"
    INDEX 01 01:55:36
  TRACK 56 AUDIO
    TITLE "0:"
    INDEX 01 01:59:55
  TRACK 57 AUDIO
    TITLE "2:cjc151_6997"
    INDEX 01 02:01:33
  TRACK 58 AUDIO
    TITLE "0:"
    INDEX 01 02:02:48
  TRACK 59 AUDIO
    TITLE "3:cjc151_6998"
    INDEX 01 02:04:25
  TRACK 60 AUDIO
    TITLE "0:"
    INDEX 01 02:08:03
  TRACK 61 AUDIO
    TITLE "2:cjc151_6999"
    INDEX 01 02:09:56
  TRACK 62 AUDIO
    TITLE "0:"
    INDEX 01 02:11:14
  TRACK 63 AUDIO
    TITLE "3:cjc151_7000"
    INDEX 01 02:12:74
  TRACK 64 AUDIO
    TITLE "0:"
    INDEX 01 02:17:34
  TRACK 65 AUDIO
    TITLE "2:cjc151_7001"
    INDEX 01 02:19:11
  TRACK 66 AUDIO
    TITLE "0:"
    INDEX 01 02:20:40
  TRACK 67 AUDIO
    TITLE "3:cjc151_7002"
    INDEX 01 02:22:21
  TRACK 68 AUDIO
    TITLE "0:"
    INDEX 01 02:25:57
  TRACK 69 AUDIO
    TITLE "2:cjc151_7003"
    INDEX 01 02:27:36
  TRACK 70 AUDIO
    TITLE "0:"
    INDEX 01 02:28:49
  TRACK 71 AUDIO
    TITLE "3:cjc151_7004"
    INDEX 01 02:30:29
  TRACK 72 AUDIO
    TITLE "0:"
    INDEX 01 02:33:66
  TRACK 73 AUDIO
    TITLE "2:cjc151_7005"
    INDEX 01 02:35:45
  TRACK 74 AUDIO
    TITLE "0:"
    INDEX 01 02:37:11
  TRACK 75 AUDIO
    TITLE "3:cjc151_7006"
    INDEX 01 02:38:63
  TRACK 76 AUDIO
    TITLE "0:"
    INDEX 01 02:42:63
  TRACK 77 AUDIO
    TITLE "2:cjc151_7007"
    INDEX 01 02:44:40
  TRACK 78 AUDIO
    TITLE "0:"
    INDEX 01 02:46:30
  TRACK 79 AUDIO
    TITLE "3:cjc151_7008"
    INDEX 01 02:48:05
  TRACK 80 AUDIO
    TITLE "0:"
    INDEX 01 02:52:30
  TRACK 81 AUDIO
    TITLE "2:cjc151_7009"
    INDEX 01 02:54:07
  TRACK 82 AUDIO
    TITLE "0:"
    INDEX 01 02:55:09
  TRACK 83 AUDIO
    TITLE "3:cjc151_7010"
    INDEX 01 02:56:69
  TRACK 84 AUDIO
    TITLE "0:"
    INDEX 01 03:00:61
  TRACK 85 AUDIO
    TITLE "2:cjc151_7011"
    INDEX 01 03:02:40
  TRACK 86 AUDIO
    TITLE "0:"
    INDEX 01 03:03:67
  TRACK 87 AUDIO
    TITLE "3:cjc151_7012"
    INDEX 01 03:05:46
  TRACK 88 AUDIO
    TITLE "0:"
    INDEX 01 03:09:34
